<svg width="586" height="234" viewBox="0 0 586 234" fill="none" xmlns="http://www.w3.org/2000/svg">
<path d="M2.55 108.3H3.15V107.4L2.55 108.3ZM3.15 111V108.3H4.95C7.45 108.4 9.65 108.25 11.55 107.85C13.55 107.45 14.7 105.9 15 103.2C15.1 102.3 15.2 100.45 15.3 97.65C15.4 94.75 15.45 91.3 15.45 87.3C15.55 83.2 15.6 78.7 15.6 73.8C15.6 68.8 15.6 63.75 15.6 58.65C15.6 53.15 15.55 47.75 15.45 42.45C15.45 37.05 15.4 32.25 15.3 28.05C15.3 23.85 15.2 20.45 15 17.85C14.9 15.15 14.75 13.7 14.55 13.5H3.6V10.95H32.55L56.1 78.6L79.5 10.95H104.1V13.5H96V108.45H104.1V111H69.45V108.3H77.85L78 28.2L76.8 27.9C72.2 41.5 67.55 55.1 62.85 68.7C58.25 82.2 53.55 95.75 48.75 109.35L19.35 26.1L18.15 26.4V94.65C18.15 97.55 18.15 99.6 18.15 100.8C18.15 102 18.25 103 18.45 103.8C18.55 105 19 105.95 19.8 106.65C20.6 107.25 21.55 107.7 22.65 108C23.85 108.3 25.05 108.45 26.25 108.45C27.55 108.45 28.8 108.45 30 108.45H31.05V111H3.15ZM200.23 9C205.93 9 211.13 10.55 215.83 13.65C220.63 16.65 224.73 20.65 228.13 25.65C231.63 30.55 234.33 36.15 236.23 42.45C238.13 48.65 239.08 54.9 239.08 61.2C239.08 67.6 238.13 73.9 236.23 80.1C234.33 86.2 231.63 91.7 228.13 96.6C224.73 101.4 220.63 105.3 215.83 108.3C211.13 111.3 205.93 112.8 200.23 112.8C194.43 112.8 189.13 111.3 184.33 108.3C179.53 105.2 175.43 101.15 172.03 96.15C168.63 91.15 165.98 85.5 164.08 79.2C162.18 72.9 161.23 66.5 161.23 60C161.23 53.8 162.23 47.65 164.23 41.55C166.33 35.45 169.13 30 172.63 25.2C176.23 20.4 180.38 16.5 185.08 13.5C189.78 10.5 194.83 9 200.23 9ZM200.53 11.4C197.33 11.4 194.58 12.25 192.28 13.95C189.98 15.55 188.03 17.75 186.43 20.55C184.83 23.25 183.53 26.35 182.53 29.85C181.63 33.25 180.88 36.8 180.28 40.5C179.78 44.1 179.43 47.7 179.23 51.3C179.03 54.8 178.93 57.95 178.93 60.75C178.93 63.65 178.98 66.9 179.08 70.5C179.28 74 179.63 77.6 180.13 81.3C180.63 84.9 181.33 88.45 182.23 91.95C183.13 95.45 184.33 98.6 185.83 101.4C187.43 104.1 189.38 106.3 191.68 108C193.98 109.6 196.78 110.4 200.08 110.4C203.38 110.4 206.18 109.55 208.48 107.85C210.78 106.15 212.68 103.95 214.18 101.25C215.68 98.45 216.83 95.3 217.63 91.8C218.43 88.2 219.03 84.6 219.43 81C219.83 77.3 220.08 73.7 220.18 70.2C220.28 66.6 220.33 63.4 220.33 60.6C220.33 58.1 220.23 55.15 220.03 51.75C219.93 48.35 219.63 44.85 219.13 41.25C218.63 37.65 217.93 34.05 217.03 30.45C216.23 26.85 215.08 23.65 213.58 20.85C212.08 18.05 210.28 15.8 208.18 14.1C206.08 12.3 203.53 11.4 200.53 11.4ZM296.339 10.95H327.389C334.389 10.95 341.039 11.75 347.339 13.35C353.639 14.95 359.139 17.7 363.839 21.6C368.639 25.4 372.439 30.55 375.239 37.05C378.039 43.55 379.439 51.65 379.439 61.35C379.439 70.85 378.089 78.8 375.389 85.2C372.789 91.5 369.189 96.55 364.589 100.35C360.089 104.15 354.789 106.9 348.689 108.6C342.689 110.2 336.239 111 329.339 111H296.339V108.45H304.889V13.65H296.339V10.95ZM322.589 13.65V108.45C329.789 108.45 335.839 107.5 340.739 105.6C345.639 103.6 349.589 100.6 352.589 96.6C355.589 92.6 357.739 87.6 359.039 81.6C360.339 75.5 360.989 68.35 360.989 60.15C360.989 53.45 360.289 47.25 358.889 41.55C357.489 35.85 355.339 30.95 352.439 26.85C349.639 22.65 346.039 19.4 341.639 17.1C337.339 14.7 332.239 13.5 326.339 13.5L322.589 13.65ZM431.971 108.45C434.171 108.45 435.971 108.3 437.371 108C438.771 107.7 439.921 107.15 440.821 106.35C441.721 105.55 442.471 104.4 443.071 102.9C443.671 101.3 444.371 99.3 445.171 96.9C449.471 82.3 453.821 67.75 458.221 53.25C462.621 38.65 467.021 24.05 471.421 9.44999H476.521L508.471 108.45H515.071V111H479.221V108.45H489.271L479.671 78.3H453.571L452.521 81.3C452.021 82.8 451.421 84.7 450.721 87C450.021 89.3 449.321 91.6 448.621 93.9C448.021 96.2 447.471 98.3 446.971 100.2C446.471 102.1 446.221 103.4 446.221 104.1C446.221 105.3 446.671 106.2 447.571 106.8C448.571 107.4 449.721 107.85 451.021 108.15C452.321 108.35 453.621 108.45 454.921 108.45C456.321 108.45 457.421 108.45 458.221 108.45H458.521V111H431.971V108.45ZM454.321 75.75H478.921L466.321 36.45L454.321 75.75Z" fill="white"/>
<path d="M196.05 120.95H280.05V123.5C276.95 123.5 274.45 123.75 272.55 124.25C270.75 124.75 269.3 125.6 268.2 126.8C267.1 127.9 266.2 129.4 265.5 131.3C264.8 133.2 264.1 135.55 263.4 138.35L261 147.35L274.65 195.8C275.35 193.8 276.15 191.4 277.05 188.6C278.05 185.8 278.9 183.35 279.6 181.25C280.6 178.25 281.7 174.95 282.9 171.35C284.1 167.65 285.3 163.95 286.5 160.25C287.8 156.55 289 152.95 290.1 149.45C291.2 145.85 292.2 142.6 293.1 139.7C294 136.7 294.7 134.2 295.2 132.2C295.7 130.1 295.95 128.7 295.95 128C295.95 126.8 295.55 125.9 294.75 125.3C294.05 124.6 293.15 124.15 292.05 123.95C291.05 123.65 290 123.5 288.9 123.5C287.9 123.5 287.05 123.5 286.35 123.5H286.2V120.95H312.9V123.5C309.9 123.5 307.6 123.6 306 123.8C304.4 123.9 303.1 124.35 302.1 125.15C301.2 125.85 300.4 127.05 299.7 128.75C299.1 130.35 298.3 132.6 297.3 135.5L296.55 137.75L268.65 224.45H266.25L252.15 175.25L238.2 224.45C237.6 224.45 236.95 224.45 236.25 224.45C235.65 224.55 235.1 224.6 234.6 224.6L203.55 123.5H196.05V120.95ZM250.35 171.2L235.65 123.5H220.35L242.55 197.45L250.35 171.2ZM259.65 143.6C259.75 143.4 260 142.5 260.4 140.9C260.9 139.3 261.4 137.55 261.9 135.65C262.5 133.75 263 131.95 263.4 130.25C263.9 128.55 264.15 127.5 264.15 127.1C264.15 126.2 263.9 125.55 263.4 125.15C263 124.65 262.45 124.3 261.75 124.1C261.15 123.8 260.5 123.65 259.8 123.65C259.2 123.55 258.7 123.5 258.3 123.5H253.95L259.65 143.6ZM386.003 218H400.553C405.153 218 409.403 217.9 413.303 217.7C417.303 217.4 420.753 216.45 423.653 214.85C426.553 213.15 428.853 210.5 430.553 206.9C432.253 203.3 433.103 198.15 433.103 191.45H435.653V221H360.353V218.45H367.853V123.5H360.353V120.95H435.503L435.653 145.55H433.103C432.303 140.05 430.853 135.85 428.753 132.95C426.753 129.95 424.253 127.8 421.253 126.5C418.353 125.1 415.003 124.35 411.203 124.25C407.503 124.05 403.503 123.95 399.203 123.95H386.003V168.2H389.903C393.003 168.2 395.703 168.1 398.003 167.9C400.403 167.7 402.403 167.05 404.003 165.95C405.603 164.85 406.803 163.15 407.603 160.85C408.403 158.45 408.853 155.15 408.953 150.95H411.353V188.75H408.953C408.853 184.95 408.453 181.95 407.753 179.75C407.153 177.45 406.253 175.75 405.053 174.65C403.853 173.45 402.403 172.7 400.703 172.4C399.003 172 397.053 171.8 394.853 171.8H386.003V218ZM491.995 120.95H522.145C525.845 120.95 529.895 121.1 534.295 121.4C538.695 121.7 542.795 122.65 546.595 124.25C550.395 125.75 553.545 128.15 556.045 131.45C558.645 134.65 559.945 139.2 559.945 145.1C559.945 151 558.395 155.9 555.295 159.8C552.295 163.6 548.395 166.15 543.595 167.45V168.95C546.295 169.75 548.845 170.8 551.245 172.1C553.645 173.4 555.745 175.05 557.545 177.05C559.345 179.05 560.745 181.45 561.745 184.25C562.745 186.95 563.245 190.15 563.245 193.85C563.245 199.85 562.195 204.65 560.095 208.25C557.995 211.85 555.295 214.6 551.995 216.5C548.695 218.4 544.995 219.65 540.895 220.25C536.795 220.75 532.795 221 528.895 221H491.995V218.45H500.095V123.5H491.995V120.95ZM516.745 166.55H518.845C521.645 166.55 524.495 166.35 527.395 165.95C530.295 165.45 532.945 164.45 535.345 162.95C537.745 161.45 539.695 159.35 541.195 156.65C542.695 153.95 543.445 150.35 543.445 145.85C543.445 142.35 542.795 139.2 541.495 136.4C540.295 133.5 538.695 131.05 536.695 129.05C534.695 127.05 532.395 125.55 529.795 124.55C527.295 123.45 524.695 122.9 521.995 122.9C521.195 122.9 520.345 123 519.445 123.2C518.645 123.3 517.745 123.45 516.745 123.65V166.55ZM516.745 218.45H524.995C531.095 218.45 536.045 216.4 539.845 212.3C543.645 208.1 545.545 202.3 545.545 194.9C545.545 189.4 544.845 184.95 543.445 181.55C542.045 178.15 540.045 175.55 537.445 173.75C534.945 171.85 531.945 170.6 528.445 170C524.945 169.3 521.045 168.95 516.745 168.95V218.45Z" fill="white"/>
</svg>
